<?xml version="1.0" standalone="no"?>
<!DOCTYPE svg PUBLIC "-//W3C//DTD SVG 20010904//EN"
 "http://www.w3.org/TR/2001/REC-SVG-20010904/DTD/svg10.dtd">
<svg version="1.0" xmlns="http://www.w3.org/2000/svg"
 width="512.000000pt" height="512.000000pt" viewBox="0 0 512.000000 512.000000"
 preserveAspectRatio="xMidYMid meet">

<g transform="translate(0.000000,512.000000) scale(0.100000,-0.100000)"
fill="#000000" stroke="none">
<path d="M2522 5078 c-8 -8 -12 -68 -12 -203 0 -173 2 -194 18 -208 24 -22 45
-21 65 1 15 16 17 45 17 201 0 107 -4 190 -10 202 -12 22 -59 26 -78 7z"/>
<path d="M1698 4719 c-10 -6 -18 -22 -18 -37 0 -38 243 -282 281 -282 30 0 49
17 49 45 0 24 -257 285 -280 285 -8 0 -23 -5 -32 -11z"/>
<path d="M3242 4597 c-130 -130 -148 -157 -120 -185 32 -32 61 -14 191 116
100 100 127 133 127 154 0 27 -23 48 -52 48 -7 0 -73 -60 -146 -133z"/>
<path d="M2387 4579 c-265 -65 -470 -269 -537 -533 -22 -88 -27 -276 -10 -356
6 -25 12 -55 15 -67 l5 -23 -702 -2 -703 -3 -49 -25 c-81 -41 -156 -147 -156
-220 0 -11 -16 -23 -45 -34 -53 -21 -123 -86 -148 -138 -10 -20 -22 -61 -28
-91 -6 -35 -9 -527 -7 -1378 3 -1242 4 -1326 21 -1363 29 -66 83 -123 145
-153 l57 -28 798 -3 797 -2 0 -53 c0 -92 29 -98 167 -32 l95 44 95 -44 c53
-25 106 -45 119 -45 32 0 54 36 54 87 l0 43 1253 2 1252 3 57 28 c65 32 118
90 145 158 17 41 18 130 21 1363 1 845 -1 1339 -8 1373 -5 30 -17 71 -27 91
-25 52 -95 117 -148 138 -29 11 -45 23 -45 34 0 73 -75 179 -156 220 l-49 25
-702 3 c-387 1 -703 6 -703 10 1 4 7 34 15 67 22 90 19 274 -5 371 -98 389
-495 629 -883 533z m372 -112 c189 -66 327 -203 399 -395 20 -54 26 -91 29
-187 8 -203 -23 -302 -148 -470 -41 -55 -81 -111 -90 -125 -32 -51 -76 -217
-95 -357 l-7 -53 -118 0 -119 0 0 285 c0 268 1 285 18 285 33 0 120 51 157 92
44 48 70 105 79 170 6 39 4 50 -13 67 -41 41 -77 18 -91 -58 -20 -110 -96
-176 -200 -176 -104 0 -180 66 -200 176 -14 76 -50 99 -91 58 -17 -17 -19 -28
-14 -67 15 -111 96 -212 199 -251 l51 -19 3 -281 2 -281 -120 0 -120 0 0 24
c0 44 -40 234 -64 306 -17 50 -47 101 -109 184 -47 64 -96 139 -110 168 -81
172 -75 432 13 597 87 164 247 286 425 325 101 23 240 15 334 -17z m-844 -987
c4 -12 43 -69 87 -128 95 -126 110 -158 138 -291 23 -106 23 -117 14 -356 -7
-199 2 -242 67 -307 27 -27 56 -64 63 -83 30 -71 114 -139 209 -169 16 -5 17
-46 17 -671 0 -578 -2 -671 -15 -703 -21 -49 -52 -81 -100 -103 -38 -18 -87
-19 -955 -19 -615 0 -928 4 -953 11 -51 14 -114 72 -127 118 -8 24 -10 441 -8
1317 l3 1280 27 41 c15 23 44 49 70 62 43 21 47 21 750 21 703 0 707 0 713
-20z m2753 1 c42 -22 63 -43 86 -88 15 -30 16 -146 14 -1326 l-3 -1293 -25
-37 c-15 -22 -46 -48 -74 -62 l-50 -25 -925 0 c-879 0 -928 1 -966 19 -48 22
-79 54 -100 103 -13 32 -15 125 -15 703 0 625 1 666 18 671 94 30 178 98 208
169 7 19 36 56 63 83 65 65 74 108 67 307 -9 239 -9 250 14 358 28 131 43 163
122 267 35 47 76 104 89 127 l24 43 708 0 c675 0 710 -1 745 -19z m274 -308
c15 -15 32 -41 37 -56 15 -40 15 -2694 0 -2734 -13 -35 -54 -79 -94 -101 -27
-16 -136 -17 -1273 -20 l-1243 -2 3 146 3 146 50 19 c28 10 70 37 93 60 l42
42 48 -45 c89 -83 23 -79 1103 -76 l954 3 54 30 c64 35 113 90 138 154 17 43
18 119 21 1264 2 1149 4 1217 20 1208 9 -5 29 -22 44 -38z m-2074 -455 l3 -58
-306 0 -305 0 0 55 0 54 93 4 c50 2 187 3 302 3 l210 -1 3 -57z m-5 -165 c11
-20 -16 -75 -46 -93 -29 -18 -51 -20 -238 -20 -114 0 -220 3 -238 6 -42 9 -81
50 -81 85 l0 29 299 0 c165 0 302 -3 304 -7z m-2449 -1976 c41 -22 41 -22 734
-25 l692 -3 0 -144 0 -145 -716 0 c-474 0 -722 3 -735 10 -10 6 -32 34 -49 63
-29 51 -30 56 -30 185 l0 134 31 -27 c18 -14 50 -36 73 -48z"/>
<path d="M710 3171 c-16 -30 -12 -48 12 -65 20 -14 94 -16 610 -16 575 0 588
0 608 20 25 25 25 42 2 63 -17 15 -74 17 -620 17 -584 0 -602 -1 -612 -19z"/>
<path d="M717 2872 c-21 -23 -22 -46 -1 -66 14 -14 83 -16 613 -16 567 0 599
1 614 18 22 24 21 38 -3 62 -20 20 -33 20 -613 20 -563 0 -595 -1 -610 -18z"/>
<path d="M710 2561 c-16 -30 -12 -48 12 -65 20 -14 94 -16 610 -16 575 0 588
0 608 20 24 24 25 43 4 64 -14 14 -84 16 -619 16 -587 0 -605 -1 -615 -19z"/>
<path d="M717 2262 c-21 -23 -22 -46 -1 -66 14 -14 92 -16 713 -16 693 0 698
0 717 21 17 19 17 23 3 47 l-15 27 -700 3 c-669 2 -702 1 -717 -16z"/>
<path d="M708 1946 c-14 -32 -5 -54 27 -66 35 -13 1354 -14 1388 -1 30 12 42
43 27 71 -11 20 -17 20 -721 20 l-709 0 -12 -24z"/>
<path d="M717 1652 c-22 -24 -21 -45 1 -65 17 -16 81 -17 715 -17 l697 0 16
25 c15 23 15 27 0 50 l-16 25 -699 0 c-663 0 -699 -1 -714 -18z"/>
<path d="M732 1360 c-29 -12 -37 -35 -24 -66 l12 -24 709 0 c704 0 710 0 721
20 15 28 3 59 -27 71 -32 12 -1360 11 -1391 -1z"/>
<path d="M716 1044 c-21 -21 -20 -47 2 -67 17 -16 81 -17 715 -17 l697 0 16
25 c15 23 15 27 0 50 l-16 25 -700 0 c-622 0 -700 -2 -714 -16z"/>
<path d="M3176 3174 c-21 -21 -20 -40 4 -64 20 -20 33 -20 609 -20 563 0 590
1 612 19 20 16 22 23 14 47 l-10 29 -607 3 c-541 2 -608 0 -622 -14z"/>
<path d="M3180 2870 c-25 -25 -25 -42 -2 -63 17 -15 74 -17 615 -17 528 0 597
2 611 16 21 21 20 47 -2 67 -17 15 -74 17 -610 17 -579 0 -592 0 -612 -20z"/>
<path d="M3176 2564 c-21 -21 -20 -40 4 -64 20 -20 33 -20 609 -20 563 0 590
1 612 19 20 16 22 23 14 47 l-10 29 -607 3 c-541 2 -608 0 -622 -14z"/>
<path d="M2976 2258 c-21 -29 -20 -41 2 -61 17 -16 81 -17 715 -17 619 0 697
2 711 16 21 21 20 47 -2 67 -17 16 -81 17 -715 17 l-696 0 -15 -22z"/>
<path d="M2969 1949 c-17 -33 3 -67 43 -74 18 -3 335 -5 705 -3 622 3 674 4
690 20 13 14 15 23 7 45 l-9 28 -712 3 -712 2 -12 -21z"/>
<path d="M2974 1645 c-15 -23 -15 -27 0 -50 l16 -25 699 0 c663 0 699 1 714
18 22 24 21 45 -1 65 -17 16 -81 17 -715 17 l-697 0 -16 -25z"/>
<path d="M2993 1360 c-27 -11 -37 -43 -23 -70 11 -20 15 -20 723 -18 l712 3 9
28 c8 22 6 31 -7 45 -16 16 -68 17 -705 19 -379 1 -697 -2 -709 -7z"/>
<path d="M2974 1039 c-17 -19 -17 -23 -3 -47 l15 -27 699 -3 c639 -2 700 -1
717 14 22 21 23 47 2 68 -14 14 -92 16 -713 16 -693 0 -698 0 -717 -21z"/>
<path d="M1350 3880 c-24 -24 -25 -43 -4 -64 13 -13 46 -16 209 -16 189 0 194
1 209 22 20 29 20 34 -4 58 -19 19 -33 20 -205 20 -172 0 -186 -1 -205 -20z"/>
<path d="M3368 3888 c-24 -20 -28 -44 -12 -67 15 -20 23 -21 209 -21 163 0
196 3 209 16 21 21 20 40 -4 64 -19 19 -33 20 -203 20 -132 0 -188 -4 -199
-12z"/>
</g>
</svg>
