<?xml version="1.0" standalone="no"?>
<!DOCTYPE svg PUBLIC "-//W3C//DTD SVG 20010904//EN"
 "http://www.w3.org/TR/2001/REC-SVG-20010904/DTD/svg10.dtd">
<svg version="1.0" xmlns="http://www.w3.org/2000/svg"
 width="218.000000pt" height="231.000000pt" viewBox="0 0 218.000000 231.000000"
 preserveAspectRatio="xMidYMid meet">

<g transform="translate(0.000000,231.000000) scale(0.100000,-0.100000)"
fill="#000000" stroke="none">
<path d="M123 2191 c-18 -11 -35 -32 -39 -47 -10 -39 169 -870 195 -905 19
-26 19 -27 1 -45 -14 -14 -42 -127 -110 -442 -49 -232 -90 -433 -90 -446 0
-13 12 -36 27 -51 24 -23 34 -26 68 -22 24 3 167 67 350 157 171 84 587 287
925 452 338 164 623 308 633 320 25 30 22 90 -5 115 -13 11 -183 98 -378 193
-195 95 -613 298 -928 451 -314 153 -582 281 -595 284 -13 3 -35 -3 -54 -14z
m140 -120 c45 -21 204 -98 352 -171 149 -73 351 -172 450 -220 686 -333 931
-453 938 -459 4 -4 -167 -92 -380 -196 -755 -367 -871 -424 -1157 -564 -159
-78 -291 -140 -293 -138 -5 6 167 801 175 808 4 4 221 21 482 38 554 37 622
42 616 49 -3 2 -251 21 -551 42 -300 21 -548 39 -550 41 -2 2 -40 175 -85 384
-44 209 -83 390 -87 403 -3 12 -2 22 1 22 4 0 43 -18 89 -39z"/>
</g>
</svg>
