<?xml version="1.0" standalone="no"?>
<!DOCTYPE svg PUBLIC "-//W3C//DTD SVG 20010904//EN"
 "http://www.w3.org/TR/2001/REC-SVG-20010904/DTD/svg10.dtd">
<svg version="1.0" xmlns="http://www.w3.org/2000/svg"
 width="200.000000pt" height="200.000000pt" viewBox="0 0 200.000000 200.000000"
 preserveAspectRatio="xMidYMid meet">

<g transform="translate(0.000000,200.000000) scale(0.100000,-0.100000)"
fill="#000000" stroke="none">
<path d="M1233 1846 c-65 -29 -82 -114 -34 -168 l29 -33 134 -5 133 -5 -311
-315 c-171 -173 -316 -325 -323 -337 -37 -72 15 -152 99 -153 l44 0 318 317
318 318 0 -110 c0 -122 8 -143 62 -171 60 -31 141 11 153 80 4 17 5 142 3 278
l-3 248 -33 32 -32 33 -263 2 c-208 2 -269 0 -294 -11z"/>
<path d="M252 1616 l-37 -34 0 -655 c0 -650 0 -656 21 -684 40 -54 21 -53 704
-53 585 0 638 1 670 18 19 9 40 28 47 42 17 34 18 711 2 743 -33 64 -116 77
-171 28 l-33 -29 -3 -291 -3 -291 -507 2 -507 3 0 505 0 505 285 5 c319 6 328
7 350 75 16 48 -2 100 -44 126 -29 18 -54 19 -384 19 l-352 0 -38 -34z"/>
</g>
</svg>
