<?xml version="1.0" standalone="no"?>
<!DOCTYPE svg PUBLIC "-//W3C//DTD SVG 20010904//EN"
 "http://www.w3.org/TR/2001/REC-SVG-20010904/DTD/svg10.dtd">
<svg version="1.0" xmlns="http://www.w3.org/2000/svg"
 width="2500.000000pt" height="2500.000000pt" viewBox="0 0 2500.000000 2500.000000"
 preserveAspectRatio="xMidYMid meet">

<g transform="translate(0.000000,2500.000000) scale(0.100000,-0.100000)"
fill="#000000" stroke="none">
<path d="M3860 24989 c-1292 -102 -2445 -780 -3167 -1864 -397 -596 -627
-1270 -683 -2004 -14 -188 -14 -17054 0 -17242 6 -73 20 -201 31 -283 186
-1371 1070 -2578 2330 -3185 477 -230 975 -362 1514 -401 199 -14 17032 -14
17233 1 1874 134 3421 1495 3802 3344 27 131 58 366 70 530 14 194 14 17036 0
17230 -39 539 -171 1037 -401 1514 -607 1261 -1814 2144 -3184 2330 -82 11
-211 25 -284 31 -165 12 -17102 12 -17261 -1z m3430 -12489 l0 -10421 -1657 4
c-1530 3 -1666 4 -1763 21 -396 66 -746 223 -1028 461 -407 342 -655 784 -739
1315 -17 110 -18 464 -18 8620 0 8156 1 8510 18 8620 37 233 102 440 199 635
329 658 981 1099 1708 1155 52 4 812 8 1688 9 l1592 1 0 -10420z m13840 10397
c320 -55 601 -163 843 -324 504 -334 828 -845 924 -1453 17 -110 18 -464 18
-8620 0 -8156 -1 -8510 -18 -8620 -38 -238 -104 -448 -208 -651 -112 -220
-236 -387 -421 -565 -312 -301 -682 -483 -1138 -561 -100 -17 -378 -18 -5927
-20 l-5823 -3 0 10420 0 10420 5823 -3 c5549 -2 5827 -3 5927 -20z"/>
<path d="M17590 16660 c-150 -20 -293 -74 -430 -160 -76 -47 -266 -234 -1723
-1689 -901 -900 -1661 -1665 -1688 -1701 -57 -75 -127 -208 -158 -297 -99
-291 -51 -613 132 -888 53 -80 3281 -3313 3391 -3396 151 -115 291 -169 486
-190 117 -12 266 -2 380 27 270 68 563 330 685 612 59 135 79 237 79 397 0
160 -20 262 -79 397 -82 189 -49 154 -1384 1491 l-1236 1237 1236 1238 c1335
1336 1302 1301 1384 1490 59 135 79 237 79 397 0 111 -4 158 -22 229 -98 390
-424 709 -812 791 -88 18 -241 26 -320 15z"/>
</g>
</svg>
