<?xml version="1.0" standalone="no"?>
<!DOCTYPE svg PUBLIC "-//W3C//DTD SVG 20010904//EN"
 "http://www.w3.org/TR/2001/REC-SVG-20010904/DTD/svg10.dtd">
<svg version="1.0" xmlns="http://www.w3.org/2000/svg"
 width="225.000000pt" height="225.000000pt" viewBox="0 0 225.000000 225.000000"
 preserveAspectRatio="xMidYMid meet">

<g transform="translate(0.000000,225.000000) scale(0.100000,-0.100000)"
fill="#000000" stroke="none">
<path d="M1055 2231 c-22 -10 -46 -25 -54 -34 -10 -13 -30 -17 -78 -17 -69 0
-116 -17 -133 -50 -10 -19 -21 -20 -181 -20 -184 0 -215 -6 -259 -55 l-25 -27
0 -973 0 -973 25 -27 c52 -56 33 -55 775 -55 742 0 723 -1 775 55 l25 27 0
973 0 973 -25 27 c-44 49 -75 55 -259 55 -160 0 -171 1 -181 20 -17 33 -64 50
-133 50 -48 0 -68 4 -78 17 -20 23 -89 53 -124 53 -16 0 -48 -9 -70 -19z m151
-85 c18 -21 32 -24 103 -27 96 -5 101 -9 101 -91 l0 -58 -285 0 -285 0 0 58
c0 82 5 86 102 91 72 3 84 6 101 27 37 48 121 48 163 0z m-426 -170 c0 -49 4
-65 16 -70 20 -8 638 -8 658 0 12 5 16 21 16 70 l0 64 179 0 180 0 20 -26 c21
-27 21 -31 21 -960 l0 -933 -24 -28 -24 -28 -697 0 -697 0 -24 28 -24 28 0
933 c0 929 0 933 21 960 l20 26 180 0 179 0 0 -64z"/>
<path d="M1100 2091 c-7 -15 -6 -23 5 -35 28 -27 69 10 44 40 -16 20 -37 17
-49 -5z"/>
<path d="M472 1958 c-17 -17 -17 -1719 0 -1736 17 -17 1289 -17 1306 0 17 17
17 1719 0 1736 -19 19 -202 16 -219 -4 -9 -11 -10 -20 -2 -32 8 -13 29 -18 92
-20 l81 -3 0 -809 0 -810 -605 0 -605 0 0 810 0 809 81 3 c63 2 84 7 92 20 8
12 7 21 -2 32 -17 20 -200 23 -219 4z"/>
<path d="M675 1767 c-3 -12 -5 -56 -3 -97 l3 -75 90 -3 c108 -3 115 2 115 96
0 98 -4 102 -110 102 -85 0 -90 -1 -95 -23z m135 -77 l0 -40 -40 0 c-39 0 -40
1 -40 33 0 42 5 47 47 47 32 0 33 -1 33 -40z"/>
<path d="M961 1776 c-6 -7 -9 -21 -5 -30 5 -14 39 -16 309 -16 194 0 306 4
310 10 3 6 3 19 0 30 -6 19 -16 20 -304 20 -241 0 -301 -3 -310 -14z"/>
<path d="M961 1637 c-6 -8 -8 -22 -5 -31 5 -14 19 -16 83 -14 74 3 76 4 76 28
0 24 -3 25 -71 28 -52 2 -74 -1 -83 -11z"/>
<path d="M1204 1635 c-14 -35 3 -45 80 -45 59 0 75 3 80 16 12 31 -13 44 -86
44 -52 0 -70 -4 -74 -15z"/>
<path d="M674 1455 c-4 -8 -1 -22 6 -30 19 -22 871 -22 890 0 7 8 10 22 6 30
-5 13 -62 15 -451 15 -389 0 -446 -2 -451 -15z"/>
<path d="M714 1242 c-82 -66 -39 -182 67 -182 47 0 89 47 89 100 0 81 -96 131
-156 82z m84 -54 c28 -28 1 -75 -38 -63 -14 4 -20 15 -20 35 0 37 33 53 58 28z"/>
<path d="M956 1244 c-15 -40 8 -45 193 -42 l176 3 0 25 0 25 -181 3 c-161 2
-182 1 -188 -14z"/>
<path d="M961 1106 c-6 -7 -9 -21 -5 -30 6 -15 36 -16 313 -14 l306 3 0 25 0
25 -301 3 c-247 2 -303 0 -313 -12z"/>
<path d="M744 938 c-42 -11 -65 -39 -71 -87 -5 -36 -2 -44 30 -76 41 -41 75
-45 124 -15 54 33 62 108 17 154 -29 28 -58 35 -100 24z m59 -79 c15 -24 1
-49 -27 -49 -31 0 -48 27 -34 53 11 22 46 19 61 -4z"/>
<path d="M964 936 c-15 -12 -17 -18 -8 -33 10 -16 29 -18 170 -21 87 -1 169 0
182 3 28 7 29 40 3 55 -32 16 -323 13 -347 -4z"/>
<path d="M956 784 c-16 -41 2 -44 309 -44 247 0 294 2 305 15 7 8 10 22 6 30
-5 13 -47 15 -310 15 -271 0 -305 -2 -310 -16z"/>
<path d="M734 620 c-12 -4 -31 -21 -44 -37 -61 -78 32 -191 123 -148 77 36 81
142 7 180 -32 17 -54 18 -86 5z m73 -76 c8 -21 -9 -48 -32 -53 -26 -5 -47 26
-34 50 12 23 57 25 66 3z"/>
<path d="M962 618 c-18 -18 -15 -36 7 -48 11 -5 87 -10 173 -10 163 0 194 7
186 46 -3 18 -14 19 -178 22 -128 2 -179 -1 -188 -10z"/>
<path d="M962 478 c-18 -18 -15 -36 8 -48 12 -7 120 -9 306 -8 255 3 288 5
297 20 8 12 7 21 -2 32 -12 14 -51 16 -305 16 -214 0 -295 -3 -304 -12z"/>
</g>
</svg>
