<?xml version="1.0" encoding="UTF-8"?>
<svg version="1.1" xmlns="http://www.w3.org/2000/svg" width="212" height="238">
<path d="M0 0 C1.09264699 -0.00551503 1.09264699 -0.00551503 2.20736766 -0.01114148 C4.66085549 -0.02219999 7.11430101 -0.02602582 9.56781006 -0.02983093 C11.32189571 -0.03609397 13.07598002 -0.04274062 14.83006287 -0.04974365 C19.60498378 -0.06716863 24.37989467 -0.07770957 29.15483952 -0.08594918 C32.13690681 -0.09109633 35.11897098 -0.0971722 38.10103607 -0.10346031 C47.42783263 -0.12251686 56.75462125 -0.13674682 66.08143353 -0.14507228 C76.85386277 -0.15484638 87.62608661 -0.1811685 98.39844346 -0.22157317 C106.72037884 -0.2517175 115.0422553 -0.26653957 123.36424422 -0.26985329 C128.33659324 -0.27220577 133.30872295 -0.28119181 138.28101349 -0.30631447 C142.95958801 -0.32957064 147.63779847 -0.33383833 152.31641579 -0.32355309 C154.03289563 -0.32305701 155.74939325 -0.32939857 157.46581841 -0.34310913 C159.81122656 -0.36079441 162.15532341 -0.35373953 164.50073242 -0.34057617 C166.46855116 -0.3441587 166.46855116 -0.3441587 168.47612381 -0.34781361 C172.63341591 0.23542715 174.76728411 1.51829258 178.0043335 4.14717102 C183.04223601 11.70402479 179.71063239 25.0304591 178.8427124 33.73335266 C178.71912857 35.02295395 178.59554474 36.31255524 178.46821594 37.64123535 C178.13290544 41.13760062 177.78988442 44.63316786 177.44511843 48.1286118 C177.08300354 51.81144419 176.72741856 55.49490806 176.37088013 59.17828369 C175.77158805 65.35917816 175.16735449 71.53957389 174.55999756 77.71968079 C173.86078978 84.83491798 173.16892219 91.95083918 172.48110068 99.06718546 C171.81546439 105.95265894 171.14509793 112.83766378 170.47245407 119.72245598 C170.18798202 122.63466837 169.90503192 125.54702244 169.62334061 128.45950508 C169.22867579 132.53695148 168.82704361 136.61368375 168.42474365 140.69038391 C168.3103746 141.87981598 168.19600555 143.06924805 168.07817078 144.29472351 C165.84049849 166.7487184 165.84049849 166.7487184 160.0043335 172.14717102 C157.28032748 173.50917403 155.12240138 173.28567137 152.07165527 173.30107117 C150.80703964 173.30967163 149.54242401 173.31827209 148.23948669 173.32713318 C146.83004802 173.33156856 145.4206089 173.33586691 144.01116943 173.34004211 C142.53294176 173.34794218 141.05471601 173.35621107 139.57649231 173.36482239 C134.71391648 173.39105523 129.85133198 173.40635202 124.9887085 173.42060852 C123.31538131 173.42596782 121.64205418 173.43134533 119.96872711 173.43674088 C113.00818503 173.45837212 106.04764529 173.47710883 99.08707809 173.48836327 C89.10912876 173.50460199 79.13156889 173.5377748 69.15376639 173.59476411 C62.13967753 173.63346071 55.12569284 173.65299565 48.11150002 173.65828383 C43.92154565 173.66193793 39.73200654 173.67396466 35.54216766 173.70638657 C31.59892325 173.73646235 27.65634543 173.74278118 23.71301079 173.73100281 C22.2674276 173.73078202 20.82181354 173.7390915 19.37633705 173.75665665 C7.10544541 173.89762699 7.10544541 173.89762699 3.22241211 170.98570251 C-0.38100041 166.37432406 -1.22239094 161.63978542 -1.7743988 155.90551758 C-1.89639145 154.67339539 -2.01838409 153.44127319 -2.14407349 152.17181396 C-2.27077567 150.8194564 -2.39732704 149.4670847 -2.52374268 148.11470032 C-2.6630105 146.6801042 -2.8028729 145.24556569 -2.94328308 143.81108093 C-3.32169199 139.92521582 -3.69110934 136.03854546 -4.05839324 132.1516149 C-4.36635291 128.90107291 -4.67867508 125.65095605 -4.9909752 122.40082866 C-5.72805678 114.72907111 -6.45781564 107.05664123 -7.18292236 99.38374329 C-7.92972196 91.48256606 -8.68837443 83.58259143 -9.45298404 75.68311948 C-10.11023902 68.8886428 -10.76030872 62.09350483 -11.4046343 55.29778987 C-11.78899786 51.24450985 -12.17597601 47.19152492 -12.56978416 43.13915062 C-12.94004408 39.3256484 -13.30126667 35.51139294 -13.65574074 31.69639206 C-13.78680058 30.30177533 -13.9209511 28.9074448 -14.05853271 27.51345634 C-15.92752166 8.52483891 -15.92752166 8.52483891 -11.5581665 3.14717102 C-7.4521485 -0.05752596 -5.20313208 0.01696885 0 0 Z M29.0043335 43.14717102 C22.54145827 52.84148386 27.59785709 75.14226925 28.23114014 86.30342102 C28.44255618 90.03492645 28.64680868 93.76677405 28.85003662 97.49873352 C28.98308225 99.89979838 29.11653162 102.30084091 29.25042725 104.70185852 C29.3108873 105.80311066 29.37134735 106.90436279 29.43363953 108.03898621 C29.71461228 112.95120969 30.02431043 117.86125574 30.43035889 122.7648468 C30.49389053 123.5509433 30.55742218 124.33703979 30.62287903 125.1469574 C31.18808569 128.11070314 32.57863203 129.45653061 35.0043335 131.14717102 C37.82434677 132.55717766 39.87440605 132.39265553 43.0043335 132.14717102 C46.71590224 130.38243547 46.71590224 130.38243547 49.0043335 127.14717102 C49.40247326 118.52979157 48.87273507 109.87236112 48.38323975 101.26826477 C48.31902328 100.0943367 48.25480682 98.92040863 48.18864441 97.71090698 C48.05328607 95.24954586 47.91622791 92.78827768 47.77752686 90.32710266 C47.56718447 86.59090525 47.36246935 82.85443145 47.15863037 79.11787415 C47.02549721 76.70965273 46.89204441 74.30144897 46.75823975 71.89326477 C46.69777969 70.79292404 46.63731964 69.69258331 46.57502747 68.55889893 C46.39714612 65.42074818 46.20457697 62.28396954 46.0043335 59.14717102 C45.93785614 58.0420517 45.87137878 56.93693237 45.80288696 55.79832458 C45.69172043 54.19028458 45.69172043 54.19028458 45.57830811 52.54975891 C45.51477646 51.58800247 45.45124481 50.62624603 45.38578796 49.63534546 C44.8648546 46.23736959 43.5637009 44.39631208 41.0043335 42.14717102 C36.97514321 40.13257588 32.68386275 40.6503476 29.0043335 43.14717102 Z M74.0043335 44.14717102 C72.47969921 47.19643959 72.83066908 50.38335273 72.8114624 53.73042297 C72.80328491 54.51272278 72.79510742 55.29502258 72.78668213 56.10102844 C72.76182325 58.69582856 72.74531105 61.29057397 72.730896 63.88545227 C72.72557232 64.77101492 72.72024864 65.65657757 72.71476364 66.56897545 C72.68803011 71.25608327 72.66865574 75.94316444 72.65423584 80.63032532 C72.63758589 85.47282032 72.59280614 90.31463503 72.5418644 95.15687275 C72.50821672 98.8792296 72.49666117 102.60142446 72.49100876 106.3239193 C72.48428956 108.10892627 72.46905007 109.89392233 72.44511795 111.67878151 C72.41351492 114.17833093 72.41342161 116.67603891 72.4208374 119.17573547 C72.40443207 119.91202682 72.38802673 120.64831818 72.37112427 121.40692139 C72.41834574 125.29846204 72.89578754 127.00840179 75.322052 130.11022949 C77.92062584 132.41541585 77.92062584 132.41541585 81.5043335 132.70967102 C85.50971601 132.06594883 87.16379176 130.98771276 90.0043335 128.14717102 C91.5066115 125.14261502 91.169087 122.043927 91.18133545 118.74751282 C91.18790665 117.98472015 91.19447784 117.22192749 91.20124817 116.4360199 C91.22099411 113.90614223 91.23264664 111.37632397 91.24261475 108.84638977 C91.24669027 107.98289225 91.2507658 107.11939472 91.25496483 106.22973061 C91.27583117 101.6593258 91.29013039 97.08895107 91.29949951 92.51850891 C91.3105648 87.79718215 91.34496425 83.0763266 91.38467121 78.35516644 C91.41081414 74.72545494 91.41918927 71.0958561 91.42278099 67.46605873 C91.42765304 65.72572968 91.43928463 63.98540586 91.45781898 62.24516869 C91.48216156 59.80807014 91.4812548 57.37219566 91.4743042 54.93501282 C91.48711426 54.21742294 91.49992432 53.49983307 91.51312256 52.76049805 C91.46319998 47.9528709 90.41147355 45.52201073 87.0043335 42.14717102 C82.1987586 39.74438357 78.1151792 41.09339992 74.0043335 44.14717102 Z M122.0043335 44.14717102 C120.08616816 47.22054781 119.6937665 49.77297486 119.50189209 53.36103821 C119.4419809 54.40443359 119.3820697 55.44782898 119.32034302 56.52284241 C119.26504425 57.6518396 119.20974548 58.78083679 119.152771 59.94404602 C119.08901276 61.12444458 119.02525452 62.30484314 118.95956421 63.52101135 C118.82599368 66.03256677 118.69683462 68.54436004 118.57171631 71.05635071 C118.38350536 74.81388208 118.17952109 78.57028983 117.9730835 82.32685852 C117.5851251 89.59816301 117.27164954 96.87048397 117.0043335 104.14717102 C116.93575134 105.90879578 116.93575134 105.90879578 116.86578369 107.70600891 C116.74858642 111.04583849 116.66995249 114.38407117 116.605896 117.72529602 C116.56918793 118.72357422 116.53247986 119.72185242 116.49465942 120.75038147 C116.3662871 126.27163533 116.3662871 126.27163533 119.31048584 130.76728821 C122.85959662 132.58526665 125.06407421 132.7100652 129.0043335 132.14717102 C132.39372905 130.01037817 133.73015906 128.96969432 135.0043335 125.14717102 C135.22441865 122.69983242 135.3979738 120.26976076 135.53265381 117.81758118 C135.576633 117.07414963 135.62061218 116.33071808 135.66592407 115.5647583 C135.80971484 113.10550537 135.946778 110.64594658 136.0824585 108.18623352 C136.15289494 106.92546053 136.15289494 106.92546053 136.22475433 105.63921738 C136.47267767 101.19225923 136.71518787 96.74504195 136.95355225 92.29756165 C137.20084772 87.70451042 137.46721853 83.11277311 137.73793411 78.52105141 C137.94261285 74.98884767 138.13284058 71.45597067 138.31917572 67.9227562 C138.41102835 66.22959928 138.50836542 64.5367306 138.61130524 62.84421158 C138.75406659 60.47519422 138.87626766 58.10594456 138.99359131 55.73554993 C139.04020905 55.03823257 139.08682678 54.34091522 139.13485718 53.62246704 C139.32467104 49.22690465 138.68919418 46.6450258 136.0043335 43.14717102 C131.06834212 39.69197706 126.62504847 40.65041374 122.0043335 44.14717102 Z " fill="#FA3B3A" transform="translate(23.99566650390625,64.85282897949219)"/>
<path d="M0 0 C0.96472733 -0.01283524 1.92945465 -0.02567047 2.92341614 -0.03889465 C3.96922348 -0.04628159 5.01503082 -0.05366852 6.0925293 -0.0612793 C7.16544724 -0.06935104 8.23836517 -0.07742279 9.34379578 -0.08573914 C11.61768982 -0.09958665 13.89160471 -0.11030581 16.16552734 -0.11816406 C19.64224666 -0.13537674 23.11801524 -0.17925793 26.59448242 -0.22338867 C28.80215771 -0.23351539 31.00984109 -0.24203156 33.2175293 -0.2487793 C34.25726395 -0.26628738 35.2969986 -0.28379547 36.36824036 -0.30183411 C43.56388713 -0.28022489 43.56388713 -0.28022489 47.42529297 1.95361328 C50.54475727 5.54922921 51.61951998 8.15775608 51.47924805 12.92700195 C51.46120117 13.7262207 51.4431543 14.52543945 51.42456055 15.34887695 C51.40135742 15.9521582 51.3781543 16.55543945 51.35424805 17.17700195 C52.1677774 17.17034012 52.98130676 17.16367828 53.81948853 17.15681458 C61.49942888 17.09661561 69.17925426 17.05098306 76.85936928 17.02156544 C80.80747192 17.00593292 84.75537902 16.98473915 88.70336914 16.95068359 C92.51592293 16.91800344 96.32828905 16.90013079 100.14097214 16.89237022 C101.59299039 16.88684219 103.04499879 16.87604722 104.4969368 16.85981178 C106.5363481 16.83792149 108.57499141 16.83503972 110.61450195 16.83642578 C111.77366119 16.82976395 112.93282043 16.82310211 114.12710571 16.8162384 C117.79616378 17.22640389 120.19940233 18.29121907 123.35424805 20.17700195 C126.86932764 24.87917233 125.68182126 31.65939811 125.66674805 37.23950195 C125.68286133 38.43639648 125.69897461 39.63329102 125.71557617 40.86645508 C125.7162207 42.01178711 125.71686523 43.15711914 125.7175293 44.3371582 C125.72051025 45.38524658 125.72349121 46.43333496 125.7265625 47.51318359 C125.35424805 50.17700195 125.35424805 50.17700195 124.34104919 51.81968117 C121.20249077 53.96384673 117.86388846 53.58901884 114.19311523 53.55795288 C113.35145687 53.56263285 112.50979851 53.56731282 111.64263535 53.57213461 C108.8119727 53.58413589 105.9817896 53.57460742 103.15112305 53.56518555 C101.12601437 53.56924897 99.1009079 53.57458955 97.07580566 53.58111572 C91.56763806 53.59482239 86.05963854 53.58947684 80.5514679 53.57997847 C74.79529355 53.57239921 69.03913388 53.57942264 63.28295898 53.58413696 C53.61528939 53.58959958 43.94768847 53.58238962 34.2800293 53.56811523 C23.09247712 53.55178778 11.90508894 53.55707593 0.71754074 53.57359445 C-8.87655672 53.5871949 -18.47060473 53.58913604 -28.06470871 53.58127844 C-33.79979898 53.57659399 -39.5348121 53.57599824 -45.26989746 53.58588791 C-50.66088056 53.59453433 -56.05165158 53.58857825 -61.44261169 53.57120514 C-63.42479601 53.56722785 -65.40699809 53.56839546 -67.38917542 53.57499313 C-70.08790015 53.58314974 -72.78593854 53.57295867 -75.48461914 53.55795288 C-76.27536961 53.56464505 -77.06612007 53.57133721 -77.88083267 53.57823217 C-83.14255246 53.52119523 -83.14255246 53.52119523 -85.63156128 51.81868935 C-87.1634669 49.33896812 -87.0347914 47.26557225 -87.04418945 44.37231445 C-87.04805664 43.23149414 -87.05192383 42.09067383 -87.0559082 40.9152832 C-87.04430664 39.72290039 -87.03270508 38.53051758 -87.02075195 37.30200195 C-87.03235352 36.11735352 -87.04395508 34.93270508 -87.0559082 33.7121582 C-87.05204102 32.56875977 -87.04817383 31.42536133 -87.04418945 30.24731445 C-87.04080566 29.20333496 -87.03742188 28.15935547 -87.03393555 27.08374023 C-86.57934739 23.67976121 -85.78246095 21.86116602 -83.64575195 19.17700195 C-79.70445993 17.15727485 -76.41132631 16.93315654 -72.01953125 16.94995117 C-71.37506546 16.94965912 -70.73059967 16.94936707 -70.06660461 16.94906616 C-67.95091974 16.95045191 -65.83559354 16.96597689 -63.7199707 16.98168945 C-62.24738253 16.98542228 -60.77479187 16.98826798 -59.30220032 16.99026489 C-55.43717523 16.99788013 -51.57230182 17.01751032 -47.70733643 17.03967285 C-43.75909476 17.06017687 -39.81082845 17.06927633 -35.86254883 17.0793457 C-28.12354759 17.10075835 -20.38467107 17.13486862 -12.64575195 17.17700195 C-12.60184326 16.49645752 -12.55793457 15.81591309 -12.51269531 15.11474609 C-12.40646851 13.77077759 -12.40646851 13.77077759 -12.2980957 12.3996582 C-12.23356201 11.51286377 -12.16902832 10.62606934 -12.10253906 9.71240234 C-11.37906225 5.69673867 -9.56670066 3.95546535 -6.64575195 1.17700195 C-4.23930732 -0.02622036 -2.68815978 0.03109768 0 0 Z " fill="#FB3B3B" transform="translate(86.645751953125,-0.177001953125)"/>
<path d="M0 0 C0 0.66 0 1.32 0 2 C-0.66 2 -1.32 2 -2 2 C-2 2.66 -2 3.32 -2 4 C-2.95519531 4.32484375 -2.95519531 4.32484375 -3.9296875 4.65625 C-6.25140866 5.84567484 -6.25140866 5.84567484 -6.7578125 8.53125 C-6.93957031 10.00078125 -6.93957031 10.00078125 -7.125 11.5 C-7.80966767 16.80966767 -7.80966767 16.80966767 -10 19 C-12.86001587 19.24050903 -12.86001587 19.24050903 -16.56103516 19.22705078 C-17.23432358 19.22734283 -17.907612 19.22763489 -18.6013031 19.22793579 C-20.83068654 19.22654047 -23.05973732 19.21097016 -25.2890625 19.1953125 C-26.83319923 19.19158308 -28.37733833 19.18873577 -29.92147827 19.18673706 C-33.98875443 19.17909499 -38.05588811 19.15944168 -42.12310791 19.1373291 C-46.2721565 19.11688296 -50.42122807 19.10773799 -54.5703125 19.09765625 C-62.71360711 19.07619625 -70.85678584 19.04205349 -79 19 C-75.41483972 16.60989315 -73.85733033 16.75673398 -69.60083008 16.77294922 C-68.63456947 16.77251114 -68.63456947 16.77251114 -67.64878845 16.77206421 C-65.52223177 16.77345616 -63.39602663 16.78901062 -61.26953125 16.8046875 C-59.79408459 16.80841812 -58.31863545 16.81126486 -56.84318542 16.81326294 C-52.96169178 16.82089558 -49.08034804 16.84054083 -45.19891357 16.8626709 C-41.23744739 16.88313731 -37.27595695 16.89226635 -33.31445312 16.90234375 C-25.54290044 16.92378714 -17.77147123 16.95791855 -10 17 C-9.95609131 16.31945557 -9.91218262 15.63891113 -9.86694336 14.93774414 C-9.76071655 13.59377563 -9.76071655 13.59377563 -9.65234375 12.22265625 C-9.58781006 11.33586182 -9.52327637 10.44906738 -9.45678711 9.53540039 C-8.73331029 5.51973671 -6.9209487 3.7784634 -4 1 C-2 -0 -2 -0 0 0 Z " fill="#CD3735" transform="translate(84,0)"/>
<path d="M0 0 C8.50167538 -0.06961858 17.00323094 -0.1228712 25.50512123 -0.15543652 C29.45322387 -0.17106904 33.40113097 -0.1922628 37.34912109 -0.22631836 C41.16167489 -0.25899851 44.974041 -0.27687117 48.78672409 -0.28463173 C50.23874235 -0.29015977 51.69075074 -0.30095474 53.14268875 -0.31719017 C55.18210005 -0.33908046 57.22074336 -0.34196223 59.26025391 -0.34057617 C60.41941315 -0.34723801 61.57857239 -0.35389984 62.77285767 -0.36076355 C66.47258972 0.052831 68.85766986 1.02131123 72 3 C73.375 6.1875 73.375 6.1875 74 9 C73.01 9 72.02 9 71 9 C71 7.35 71 5.7 71 4 C70.01 4 69.02 4 68 4 C68 3.34 68 2.68 68 2 C45.56 2 23.12 2 0 2 C0 1.34 0 0.68 0 0 Z " fill="#CC3937" transform="translate(138,17)"/>
<path d="M0 0 C2 2 2 2 2.1953125 4.8203125 C2.16050781 6.45613281 2.16050781 6.45613281 2.125 8.125 C2.10695312 9.22070312 2.08890625 10.31640625 2.0703125 11.4453125 C2.04710937 12.28835937 2.02390625 13.13140625 2 14 C3.65 14.33 5.3 14.66 7 15 C7 15.66 7 16.32 7 17 C3.53846154 20 3.53846154 20 1 20 C1.01160156 20.77859375 1.02320313 21.5571875 1.03515625 22.359375 C1.09543227 29.83360166 0.94185022 37.28282929 0.625 44.75 C0.59414307 45.63139648 0.56328613 46.51279297 0.53149414 47.42089844 C0.4927417 48.2462207 0.45398926 49.07154297 0.4140625 49.921875 C0.3826416 50.66018555 0.3512207 51.39849609 0.31884766 52.15917969 C0 54 0 54 -2 56 C-2.13875006 43.25233797 -1.73137331 30.6004048 -1 17.875 C-0.9031944 16.12632702 -0.80683836 14.37762909 -0.7109375 12.62890625 C-0.47910894 8.4189669 -0.24130763 4.20940621 0 0 Z " fill="#DD3C3D" transform="translate(161,134)"/>
<path d="M0 0 C0.66 0 1.32 0 2 0 C2 5.94 2 11.88 2 18 C2.66 18 3.32 18 4 18 C4.33 22.62 4.66 27.24 5 32 C8 33.33333333 8 33.33333333 11 32 C11 32.66 11 33.32 11 34 C10.34 34 9.68 34 9 34 C9 34.99 9 35.98 9 37 C9.66 37.33 10.32 37.66 11 38 C10.67 38.66 10.34 39.32 10 40 C5.35538882 36.56702652 3.44201171 34.77448438 2 29 C1.49146451 25.36364294 1.17239961 21.72149023 0.875 18.0625 C0.78863281 17.09892578 0.70226562 16.13535156 0.61328125 15.14257812 C0.17687128 10.07537349 -0.09901928 5.08534735 0 0 Z " fill="#D24140" transform="translate(21,198)"/>
<path d="M0 0 C1.65 0 3.3 0 5 0 C4.84152588 0.55268555 4.68305176 1.10537109 4.51977539 1.67480469 C3.95067733 4.22064305 3.7896572 6.59699445 3.68359375 9.203125 C3.64169922 10.1828125 3.59980469 11.1625 3.55664062 12.171875 C3.49766602 13.69554688 3.49766602 13.69554688 3.4375 15.25 C3.39431641 16.28125 3.35113281 17.3125 3.30664062 18.375 C3.20074318 20.9165387 3.09866557 23.45817196 3 26 C2.67 26 2.34 26 2 26 C2.01047363 25.39003174 2.02094727 24.78006348 2.03173828 24.15161133 C2.07346621 21.37194993 2.09937922 18.59235461 2.125 15.8125 C2.14175781 14.85279297 2.15851563 13.89308594 2.17578125 12.90429688 C2.18222656 11.97294922 2.18867188 11.04160156 2.1953125 10.08203125 C2.20578613 9.22843018 2.21625977 8.3748291 2.22705078 7.49536133 C1.97204194 4.69273185 1.15541422 2.55270581 0 0 Z " fill="#D54648" transform="translate(160,108)"/>
<path d="M0 0 C0 0.66 0 1.32 0 2 C-0.66 2 -1.32 2 -2 2 C-2 2.66 -2 3.32 -2 4 C-2.62390625 4.22429688 -3.2478125 4.44859375 -3.890625 4.6796875 C-6.72331159 6.45273948 -6.93255443 7.93696227 -7.75 11.125 C-7.99234375 12.03507813 -8.2346875 12.94515625 -8.484375 13.8828125 C-8.65453125 14.58148438 -8.8246875 15.28015625 -9 16 C-9.33 16 -9.66 16 -10 16 C-9.83594462 9.28864336 -8.85033511 5.73203426 -4 1 C-2 0 -2 0 0 0 Z " fill="#D33939" transform="translate(84,0)"/>
<path d="M0 0 C3 3 3 3 3.07421875 5.91796875 C2.94660156 6.99691406 2.81898437 8.07585937 2.6875 9.1875 C2.56761719 10.27417969 2.44773437 11.36085938 2.32421875 12.48046875 C2.21722656 13.31191406 2.11023438 14.14335938 2 15 C1.34 15 0.68 15 0 15 C0 10.05 0 5.1 0 0 Z " fill="#E93837" transform="translate(12,97)"/>
<path d="M0 0 C0.99 0.495 0.99 0.495 2 1 C2.62599243 4.38035912 3 7.56169885 3 11 C2.01 11.33 1.02 11.66 0 12 C0 8.04 0 4.08 0 0 Z " fill="#DD403E" transform="translate(73,180)"/>
<path d="M0 0 C0 0.66 0 1.32 0 2 C-0.66 2 -1.32 2 -2 2 C-2 2.99 -2 3.98 -2 5 C-1.34 5.33 -0.68 5.66 0 6 C-0.33 6.66 -0.66 7.32 -1 8 C-3.5 6.1875 -3.5 6.1875 -6 4 C-6 3.01 -6 2.02 -6 1 C-3.92446352 0.4465236 -2.15634036 0 0 0 Z " fill="#E23A37" transform="translate(32,230)"/>
<path d="M0 0 C0.66 0 1.32 0 2 0 C1.67 4.95 1.34 9.9 1 15 C0.67 15 0.34 15 0 15 C-0.19390729 12.68802845 -0.37996367 10.3753971 -0.5625 8.0625 C-0.71912109 6.13083984 -0.71912109 6.13083984 -0.87890625 4.16015625 C-0.91886719 3.11730469 -0.95882812 2.07445312 -1 1 C-0.67 0.67 -0.34 0.34 0 0 Z " fill="#D03C3A" transform="translate(189,213)"/>
<path d="M0 0 C3.25666272 0.56149357 4.95623323 1.37229986 7 4 C7.6875 6.1875 7.6875 6.1875 8 8 C7.01 8 6.02 8 5 8 C5 6.35 5 4.7 5 3 C4.01 3 3.02 3 2 3 C2 2.34 2 1.68 2 1 C1.34 0.67 0.68 0.34 0 0 Z " fill="#DE3C39" transform="translate(204,18)"/>
<path d="M0 0 C1.65 0 3.3 0 5 0 C4.835 0.53625 4.67 1.0725 4.5 1.625 C3.90339788 4.45886009 3.9343632 7.1119806 4 10 C3.67 10 3.34 10 3 10 C2.01 6.7 1.02 3.4 0 0 Z " fill="#DA3A3E" transform="translate(160,108)"/>
</svg>
