<?xml version="1.0" standalone="no"?>
<!DOCTYPE svg PUBLIC "-//W3C//DTD SVG 20010904//EN"
 "http://www.w3.org/TR/2001/REC-SVG-20010904/DTD/svg10.dtd">
<svg version="1.0" xmlns="http://www.w3.org/2000/svg"
 width="512.000000pt" height="512.000000pt" viewBox="0 0 512.000000 512.000000"
 preserveAspectRatio="xMidYMid meet">

<g transform="translate(0.000000,512.000000) scale(0.100000,-0.100000)"
fill="#000000" stroke="none">
<path d="M4510 4932 c-158 -42 -287 -171 -330 -332 -7 -25 -13 -81 -14 -124
l-1 -80 -377 -317 -378 -317 -46 14 c-98 29 -253 9 -342 -46 -18 -11 -38 -20
-44 -20 -6 0 -140 59 -297 131 -157 73 -300 138 -317 145 -27 11 -32 20 -38
59 -8 64 -56 161 -108 220 -148 168 -410 206 -598 85 -62 -40 -134 -119 -166
-182 -31 -62 -56 -169 -52 -227 l2 -46 -329 -252 c-182 -139 -347 -265 -367
-279 l-37 -26 -70 16 c-171 39 -319 -3 -442 -124 -178 -177 -181 -462 -7 -646
92 -98 200 -144 337 -144 257 0 457 194 464 450 1 54 6 78 17 86 8 7 172 131
364 278 191 146 352 266 357 266 4 0 34 -7 66 -15 108 -28 237 -13 332 41 24
13 49 24 55 24 6 0 153 -65 326 -145 l315 -144 8 -48 c5 -26 21 -75 37 -109
143 -299 544 -357 766 -111 84 93 131 227 120 338 l-5 55 375 315 c312 261
379 314 402 311 158 -15 222 -14 285 7 170 57 292 202 320 380 21 140 -29 288
-133 392 -120 121 -283 164 -450 121z m250 -161 c74 -34 117 -77 152 -149 29
-58 33 -76 32 -142 -1 -130 -67 -232 -185 -285 -55 -24 -70 -27 -143 -23 -121
7 -213 65 -266 168 -43 84 -44 204 -3 283 21 42 92 116 127 134 92 48 204 53
286 14z m-2742 -536 c65 -35 107 -81 141 -155 33 -72 35 -173 4 -242 -28 -62
-96 -134 -158 -166 -43 -23 -62 -27 -135 -27 -73 0 -92 4 -135 27 -181 96
-236 310 -119 470 65 91 149 130 269 125 66 -3 90 -8 133 -32z m2275 -71 l37
-42 -336 -283 -337 -283 -16 25 c-9 13 -33 42 -53 64 l-37 41 32 26 c18 14
169 141 337 282 301 253 305 256 320 233 8 -12 32 -41 53 -63z m-1673 -459
c129 -59 237 -109 239 -111 1 -1 -8 -27 -22 -56 -13 -29 -28 -63 -33 -75 -9
-21 -16 -18 -269 97 -143 66 -264 121 -270 123 -6 2 -1 21 11 43 12 21 27 56
34 76 l11 38 32 -14 c18 -8 138 -62 267 -121z m-1146 4 c10 -17 32 -46 48 -65
17 -19 29 -36 27 -38 -167 -129 -642 -487 -644 -484 -2 1 -24 32 -50 67 -44
59 -45 64 -28 76 10 7 153 117 318 244 165 126 302 230 305 230 3 1 14 -13 24
-30z m1911 -102 c139 -71 210 -222 170 -363 -29 -105 -117 -197 -215 -224 -57
-16 -145 -12 -203 10 -76 29 -130 79 -169 157 -27 56 -32 77 -32 137 0 141 91
260 234 307 49 16 162 4 215 -24z m-2773 -415 c241 -106 257 -442 26 -567 -42
-23 -68 -30 -134 -33 -72 -4 -88 -1 -143 23 -70 32 -132 94 -164 163 -16 35
-21 67 -21 127 -1 73 2 86 35 145 40 74 107 132 179 155 60 20 162 14 222 -13z"/>
<path d="M4305 3548 c-25 -7 -58 -29 -91 -63 -42 -42 -54 -61 -63 -106 -9 -40
-11 -340 -9 -1142 l3 -1089 24 -19 c32 -26 73 -24 99 4 l22 23 2 1102 3 1101
23 23 c22 23 26 23 308 26 l285 3 29 -30 30 -29 0 -1486 0 -1485 -24 -28 -24
-28 -291 0 c-289 0 -291 0 -313 23 -23 22 -23 27 -26 297 l-3 274 -26 21 c-47
36 -104 16 -118 -43 -4 -13 -5 -142 -3 -288 3 -248 4 -266 25 -304 25 -47 64
-85 113 -111 32 -17 62 -19 345 -19 343 0 359 2 419 61 78 76 71 -79 74 1607
1 993 -1 1522 -8 1546 -15 58 -63 116 -117 142 -47 24 -54 24 -348 26 -188 1
-315 -3 -340 -9z"/>
<path d="M1520 3009 c-56 -25 -86 -53 -113 -104 -21 -37 -22 -56 -25 -297 l-3
-258 25 -25 c30 -30 65 -32 97 -6 24 19 24 21 29 271 5 250 5 252 29 271 22
18 43 19 306 19 156 0 291 -3 300 -6 46 -18 45 15 45 -1278 l0 -1215 -24 -28
-24 -28 -292 0 -292 0 -24 28 -24 28 0 860 0 860 -25 24 c-31 32 -69 32 -100
0 l-25 -24 0 -864 c0 -952 -2 -920 62 -986 18 -18 50 -42 72 -54 40 -21 52
-22 356 -22 306 0 316 1 356 22 56 30 109 94 123 148 18 70 14 2478 -3 2528
-22 59 -64 107 -120 133 -50 23 -56 24 -356 24 -285 0 -308 -2 -350 -21z"/>
<path d="M2917 2386 c-57 -21 -103 -61 -128 -113 l-24 -48 -3 -910 c-2 -637 0
-925 8 -961 13 -61 63 -124 124 -157 40 -21 50 -22 356 -22 l315 0 52 29 c57
31 95 79 113 141 8 29 10 298 8 966 l-3 926 -30 49 c-19 30 -49 60 -79 79
l-49 30 -311 2 c-243 2 -319 0 -349 -11z m626 -147 c14 -6 30 -22 36 -36 8
-17 11 -285 11 -923 l0 -899 -24 -28 -24 -28 -292 0 -292 0 -24 28 -24 28 0
905 0 906 29 29 29 29 276 0 c180 0 283 -4 299 -11z"/>
<path d="M163 1966 c-59 -19 -99 -50 -130 -104 l-28 -47 0 -740 0 -740 27 -46
c33 -57 87 -95 155 -109 33 -7 153 -10 335 -8 253 3 287 5 318 22 49 26 88 64
113 111 22 40 22 45 25 740 2 509 0 715 -8 754 -16 73 -91 151 -162 169 -67
17 -589 15 -645 -2z m634 -160 l28 -24 0 -706 0 -705 -23 -23 c-22 -23 -24
-23 -313 -23 l-291 0 -24 28 -24 28 0 689 c0 485 3 696 11 714 6 13 21 29 33
34 13 7 129 11 298 11 l277 1 28 -24z"/>
</g>
</svg>
