<?xml version="1.0" standalone="no"?>
<!DOCTYPE svg PUBLIC "-//W3C//DTD SVG 20010904//EN"
 "http://www.w3.org/TR/2001/REC-SVG-20010904/DTD/svg10.dtd">
<svg version="1.0" xmlns="http://www.w3.org/2000/svg"
 width="200.000000pt" height="200.000000pt" viewBox="0 0 200.000000 200.000000"
 preserveAspectRatio="xMidYMid meet">

<g transform="translate(0.000000,200.000000) scale(0.100000,-0.100000)"
fill="#000000" stroke="none">
<path d="M1379 1606 c-57 -20 -79 -40 -323 -284 l-228 -229 -29 -119 c-36
-151 -36 -169 -3 -191 25 -16 31 -15 158 16 l132 32 246 247 c135 136 253 261
262 279 35 69 9 178 -51 221 -26 18 -95 42 -118 42 -5 -1 -26 -7 -46 -14z m93
-133 c23 -21 23 -55 0 -76 -17 -16 -21 -14 -57 23 -32 33 -36 42 -25 55 16 20
59 19 82 -2z m-139 -141 l37 -38 -178 -176 c-151 -150 -183 -178 -221 -188
-23 -6 -45 -9 -48 -6 -3 3 0 27 6 53 11 43 30 66 184 221 94 94 174 172 177
172 3 0 23 -17 43 -38z"/>
<path d="M472 1503 c-19 -9 -44 -32 -58 -52 l-24 -36 0 -448 c0 -447 0 -450
22 -489 14 -24 41 -51 68 -66 l45 -27 430 0 430 0 47 27 c32 19 52 41 67 71
20 41 21 60 21 314 0 249 -1 271 -18 286 -26 24 -68 21 -86 -5 -14 -19 -16
-62 -16 -273 0 -211 -2 -254 -16 -273 l-15 -22 -413 0 c-387 0 -414 1 -429 18
-15 17 -17 61 -17 433 0 310 3 418 12 427 9 9 82 12 265 12 240 0 254 1 273
20 24 24 25 48 4 78 -15 22 -17 22 -287 22 -231 0 -277 -3 -305 -17z"/>
</g>
</svg>
