<?xml version="1.0" encoding="UTF-8"?>
<svg version="1.1" xmlns="http://www.w3.org/2000/svg" width="225" height="225">
<path d="M0 0 C1.22074219 0.32871094 2.44148437 0.65742187 3.69921875 0.99609375 C32.12393085 9.57994098 55.6817302 29.30205064 70.16845703 55.07910156 C78.9341668 71.44533711 83.18801116 88.52495479 83.24023438 107.03808594 C83.24987706 109.09872807 83.28092289 111.15834382 83.3125 113.21875 C83.46926367 132.51287436 83.46926367 132.51287436 78.61035156 138.79736328 C75.81204259 140.8871859 73.34329702 140.41058034 70 140 C66.84691404 137.6766735 65.61543579 135.81849933 65 132 C65.3046875 129.9140625 65.3046875 129.9140625 65.875 127.625 C71.1484527 102.88311576 65.33423144 77.13029921 52.01953125 55.83203125 C50.10698893 53.12545939 48.11426273 50.55155805 46 48 C44.93458984 46.70835938 44.93458984 46.70835938 43.84765625 45.390625 C28.9514794 28.11210704 5.98068325 15.07291498 -17 13 C-36.67888952 11.78671508 -54.0928356 13.33852048 -72 22 C-72.89847656 22.42925781 -73.79695313 22.85851562 -74.72265625 23.30078125 C-97.81545003 35.09638095 -114.17168115 55.30726928 -122.3125 79.78125 C-129.79458427 105.52842233 -127.76417543 133.03075672 -115.02734375 156.81640625 C-101.45007047 180.71860218 -79.71985046 196.54806457 -53.46484375 204.00390625 C-31.02455967 209.33701624 -7.63002034 207.25167995 13.1875 197.125 C16.42237866 195.56401151 17.8308877 195 21.5 195 C24.13121526 196.0524861 25.41231796 196.66025805 27 199 C28.13526328 202.0814289 28.25654237 203.42023278 26.91796875 206.4453125 C19.59508556 216.19921393 0.30230104 219.39310302 -11.1484375 221.609375 C-43.07636652 224.84750168 -73.8879346 219.09024079 -99.5 198.8125 C-122.08372157 179.53846176 -138.9393573 154.20452445 -142 124 C-142.62459223 109.18859616 -142.95502416 94.37899473 -139 80 C-138.67128906 78.78054687 -138.34257812 77.56109375 -138.00390625 76.3046875 C-129.42858969 47.87855165 -109.69515311 24.31669831 -83.92089844 9.83154297 C-58.65682072 -3.69982606 -27.76625208 -7.5614821 0 0 Z " fill="#000000" transform="translate(142,3)"/>
<path d="M0 0 C4.10985653 0.66051266 5.04149804 1.27509437 7.5 4.5625 C7.91034169 7.17616236 8.07789031 9.37579794 8.06518555 11.98974609 C8.08292778 13.10270302 8.08292778 13.10270302 8.10102844 14.23814392 C8.1338907 16.6877103 8.13687242 19.13616527 8.13671875 21.5859375 C8.14703507 23.29221042 8.15809834 24.99847897 8.1698761 26.70474243 C8.18930811 30.2808168 8.19273018 33.85650009 8.1862793 37.43261719 C8.18028506 42.00866072 8.22449915 46.58267432 8.28216839 51.1583004 C8.31919631 54.68263155 8.32406811 58.2064748 8.31989479 61.7309761 C8.32276301 63.41747262 8.33680897 65.10398943 8.36237144 66.79029465 C8.53909177 79.81796575 8.53909177 79.81796575 6.20144653 83.74264526 C4.39575822 85.35193075 2.62943303 86.42120834 0.5 87.5625 C-0.92915417 88.5740113 -2.35005815 89.597253 -3.76367188 90.63037109 C-5.32829842 91.70435175 -6.89683422 92.77265416 -8.46875 93.8359375 C-9.72745911 94.68884872 -9.72745911 94.68884872 -11.01159668 95.55899048 C-12.77467787 96.7497979 -14.53955951 97.93794359 -16.30615234 99.12353516 C-19.00205944 100.93888677 -21.68239649 102.77584295 -24.36328125 104.61328125 C-26.08501778 105.77220088 -27.80764438 106.92979951 -29.53125 108.0859375 C-30.32623901 108.63583344 -31.12122803 109.18572937 -31.94030762 109.75228882 C-36.59769291 112.83292547 -39.72462013 114.38429679 -45.5 113.5625 C-47.9375 112 -47.9375 112 -49.5 109.5625 C-50.1875 106.1875 -50.1875 106.1875 -49.5 102.5625 C-45.37855243 97.96234716 -39.78600821 94.5557579 -34.66796875 91.1640625 C-33.95014725 90.6842392 -33.23232574 90.20441589 -32.49275208 89.71005249 C-30.99090016 88.70791791 -29.48751879 87.7080719 -27.98266602 86.71044922 C-25.6719096 85.17715504 -23.36796659 83.63399208 -21.06445312 82.08984375 C-19.59935313 81.11399034 -18.13387202 80.13870883 -16.66796875 79.1640625 C-15.97841599 78.70166168 -15.28886322 78.23926086 -14.57841492 77.7628479 C-9.72997931 74.5625 -9.72997931 74.5625 -7.5 74.5625 C-7.50888245 73.7091658 -7.51776489 72.8558316 -7.5269165 71.97663879 C-7.60711751 63.92852112 -7.66799234 55.88053798 -7.70724869 47.83211231 C-7.72810948 43.69446048 -7.75639897 39.55713928 -7.80175781 35.41967773 C-7.84527028 31.42556707 -7.86914846 27.43177411 -7.87950897 23.43744469 C-7.88689073 21.91480191 -7.90130586 20.39217621 -7.92292023 18.86966896 C-7.95202778 16.73410312 -7.9559532 14.59984413 -7.95410156 12.46411133 C-7.96298401 11.2494368 -7.97186646 10.03476227 -7.98101807 8.78327942 C-7.19863502 3.54463376 -5.27967049 0.84851847 0 0 Z " fill="#000000" transform="translate(119.5,41.4375)"/>
<path d="M0 0 C4.43037919 1.31270495 4.43037919 1.31270495 6.375 4 C6.76268005 6.72557068 6.76268005 6.72557068 6.77905273 10.06030273 C6.79173691 11.30847275 6.80442108 12.55664276 6.81748962 13.84263611 C6.8154381 15.20629034 6.81245 16.56994343 6.80859375 17.93359375 C6.81315476 19.33220168 6.81846009 20.73080737 6.82447815 22.12940979 C6.83341383 25.06073103 6.83098148 27.99177992 6.82104492 30.9230957 C6.80955855 34.67720905 6.82975779 38.43038131 6.85896206 42.18437099 C6.87732142 45.07292134 6.87703218 47.9612461 6.87132454 50.84984016 C6.87117127 52.23371767 6.8772207 53.61761042 6.88961601 55.00143242 C6.90451478 56.93766998 6.89122465 58.87406226 6.87670898 60.81030273 C6.87645973 62.46218849 6.87645973 62.46218849 6.87620544 64.14744568 C6.25487914 67.68365436 5.2146404 68.86020192 2.375 71 C-1.125 71.5625 -1.125 71.5625 -4.625 71 C-7.23007661 68.43157414 -8.49241775 66.74279708 -9.1396637 63.11657715 C-9.14586227 62.05910278 -9.15206085 61.00162842 -9.15844727 59.91210938 C-9.1742836 58.70735962 -9.19011993 57.50260986 -9.20643616 56.26135254 C-9.20147629 54.9685437 -9.19651642 53.67573486 -9.19140625 52.34375 C-9.19664517 50.9952349 -9.20292263 49.64672347 -9.21018982 48.29821777 C-9.22057879 45.47711904 -9.21605449 42.65652519 -9.20141602 39.83544922 C-9.18422075 36.22698761 -9.20773693 32.62011729 -9.24290562 29.01183319 C-9.26490516 26.22871427 -9.26343244 23.44597477 -9.2551403 20.66279602 C-9.2539258 18.68803754 -9.27383186 16.71330247 -9.29408264 14.73864746 C-9.19048963 4.78073281 -9.19048963 4.78073281 -6.31225586 1.64648438 C-3.625 0 -3.625 0 0 0 Z " fill="#000000" transform="translate(190.625,126)"/>
<path d="M0 0 C2.70415801 2.19712839 2.94492745 3.55941961 3.375 7 C2.94492745 10.44058039 2.70415801 11.80287161 0 14 C-3.17468977 14.45352711 -4.98984447 14.69511624 -8 14 C-10.5625 11.875 -10.5625 11.875 -12 9 C-11.93689022 5.84451076 -11.48864121 3.86230802 -9.9375 1.125 C-6.76427268 -0.71751909 -3.56241421 -0.66053097 0 0 Z " fill="#010101" transform="translate(194,211)"/>
</svg>
