<?xml version="1.0" encoding="UTF-8"?>
<svg version="1.1" xmlns="http://www.w3.org/2000/svg" width="221" height="228">
<path d="M0 0 C0.02578125 -0.94101562 0.0515625 -1.88203125 0.078125 -2.8515625 C0.47221115 -11.50354486 1.05702257 -16.34553311 7.5625 -22.375 C12.45491843 -24.68777962 16.68256843 -24.87208965 22 -24 C26.49639123 -22.23559331 28.57780232 -19.87781159 30.66259766 -15.54321289 C32.52745464 -10.197396 32.43080005 -4.91657246 32.3984375 0.69140625 C32.40274277 2.34752174 32.40274277 2.34752174 32.40713501 4.03709412 C32.40916818 6.3609163 32.40369086 8.68475589 32.39111328 11.00854492 C32.37503439 14.55491536 32.39099616 18.10014883 32.41015625 21.64648438 C32.40817399 23.91146083 32.40433066 26.17643659 32.3984375 28.44140625 C32.40451019 29.49574356 32.41058289 30.55008087 32.4168396 31.6363678 C32.34618548 39.06833044 31.60176154 44.14440806 26.4375 49.8125 C18.81557764 55.50299725 6.59156082 54.79488036 -2.5625 55.625 C-3.26977234 55.6897049 -3.97704468 55.75440979 -4.70574951 55.82107544 C-34.94653986 58.55447153 -34.94653986 58.55447153 -42 53 C-45.11464807 49.13354033 -46.14067821 44.92373724 -46 40 C-44.65124832 35.3190383 -42.80697192 31.98077279 -38.86328125 28.99609375 C-32.97553395 25.84855589 -25.52229525 25.80317012 -19 25 C-27.32413142 19.34796402 -35.39233905 14.23639834 -45 11 C-46.41732422 10.52240234 -46.41732422 10.52240234 -47.86328125 10.03515625 C-68.39885871 4.25536337 -90.84031201 7.64027276 -109.33984375 17.80078125 C-126.01592783 27.51227509 -139.67344552 44.29210135 -145 63 C-146.52562539 69.85368873 -147.61629672 76.80467783 -148.453125 83.7734375 C-149.27358928 90.41312069 -149.87965859 94.48922304 -155 99 C-159.48704619 101.72056696 -163.89569485 101.52373164 -169 101 C-173.3641051 99.25435796 -176.71507998 96.1199137 -179 92 C-184.31416569 74.61753545 -175.72127641 50.32131196 -167.6875 35 C-163.75739285 27.82274141 -159.20424697 21.32212674 -154 15 C-153.08347656 13.83791016 -153.08347656 13.83791016 -152.1484375 12.65234375 C-114.38759886 -32.90168924 -45.01961687 -34.40073918 0 0 Z " fill="#000000" transform="translate(180,24)"/>
<path d="M0 0 C4.11514677 2.67530987 6.66574727 5.89641266 8.375 10.5 C11.9470672 32.7488757 0.94359269 59.50969769 -11.5 77.1875 C-29.80732253 101.43328224 -54.45719521 117.81583368 -84.52001953 123.08764648 C-100.99795307 125.27598032 -118.77083445 124.7088837 -134.625 119.5 C-135.26501953 119.29101074 -135.90503906 119.08202148 -136.56445312 118.86669922 C-148.08931 114.95375824 -160.08035283 109.11155407 -169.625 101.5 C-169.563125 102.675625 -169.50125 103.85125 -169.4375 105.0625 C-169.46394242 110.05130411 -170.50787539 114.3151274 -174.08984375 118.01171875 C-178.62581134 121.88226323 -181.43017776 122.86687817 -187.2421875 122.7734375 C-191.11889849 122.32856903 -193.65349928 120.96566562 -196.625 118.5 C-201.32252466 112.26910841 -201.21016445 106.65518279 -201.15625 99.03125 C-201.1600769 97.83697388 -201.16390381 96.64269775 -201.16784668 95.41223145 C-201.1705615 92.89411574 -201.16323066 90.37597164 -201.14648438 87.85791016 C-201.12507075 84.01270424 -201.14630297 80.16936684 -201.171875 76.32421875 C-201.16923165 73.87239173 -201.16410653 71.42056586 -201.15625 68.96875 C-201.16434692 67.82378052 -201.17244385 66.67881104 -201.18078613 65.49914551 C-201.10455125 58.98118459 -200.78991777 54.64609255 -196.625 49.5 C-191.34471793 45.56393049 -186.71088183 44.74969179 -180.24609375 44.234375 C-179.35696793 44.15125061 -178.4678421 44.06812622 -177.55177307 43.98248291 C-175.67575787 43.81028307 -173.79899955 43.64601431 -171.92163086 43.48925781 C-169.09366413 43.25260788 -166.26876678 42.99186823 -163.44335938 42.7265625 C-136.30499215 40.25241745 -136.30499215 40.25241745 -130 43.1875 C-129.21625 43.950625 -128.4325 44.71375 -127.625 45.5 C-126.861875 46.221875 -126.09875 46.94375 -125.3125 47.6875 C-122.96847639 51.59420602 -122.3147295 54.95945612 -122.625 59.5 C-123.87763176 63.91922261 -125.6183502 66.64725297 -129.12890625 69.62109375 C-133.69492839 72.07501179 -137.90169255 72.63180295 -143 73.25 C-143.92683594 73.37503906 -144.85367188 73.50007813 -145.80859375 73.62890625 C-148.07927945 73.93322495 -150.35083077 74.22314462 -152.625 74.5 C-135.64697614 87.76220274 -115.33261625 94.65808537 -93.63183594 92.28173828 C-72.69793284 89.39482823 -53.76011374 80.04415278 -40.1875 63.53515625 C-29.38818604 48.77730997 -24.24231078 33.05365392 -23.1875 14.875 C-22.7550888 8.61775552 -20.71366584 5.38489357 -16.0625 1.1875 C-10.80644921 -2.45130439 -5.81496161 -2.40619101 0 0 Z " fill="#000000" transform="translate(212.625,104.5)"/>
</svg>
