<?xml version="1.0" encoding="UTF-8"?>
<svg version="1.1" xmlns="http://www.w3.org/2000/svg" width="200" height="200">
<path d="M0 0 C2.1640625 0.41015625 2.1640625 0.41015625 4.7265625 2.47265625 C6.56495181 6.22936484 6.62037639 8.2355827 6.1640625 12.41015625 C4.71337637 15.56446183 2.80165644 18.34969159 0.83984375 21.20703125 C0.27458984 22.05749527 -0.29066406 22.90795929 -0.87304688 23.78419495 C-2.74130774 26.5866969 -4.63205897 29.37321542 -6.5234375 32.16015625 C-7.83250585 34.11391038 -9.140185 36.06859596 -10.4465332 38.02416992 C-13.86766436 43.13655917 -17.30839476 48.23543024 -20.75488281 53.33074951 C-24.13452454 58.33171925 -27.49984915 63.34230442 -30.8671875 68.3515625 C-36.29006518 76.41349993 -41.72125175 84.46977124 -47.17973328 92.50765991 C-49.72372055 96.259129 -52.24468278 100.02161908 -54.70947266 103.82568359 C-55.15845413 104.51446091 -55.60743561 105.20323822 -56.07002258 105.91288757 C-56.89362623 107.18005208 -57.7106603 108.45152559 -58.51921082 109.72834778 C-60.88378523 113.35757273 -63.03327825 116.27109643 -66.8359375 118.41015625 C-72.29727852 118.74404816 -74.93375358 117.69930815 -79.03295898 114.11889648 C-80.52647149 112.67135112 -82.00027851 111.20328313 -83.45703125 109.71875 C-84.6350808 108.55074608 -84.6350808 108.55074608 -85.83692932 107.35914612 C-87.48836295 105.71246393 -89.13103761 104.05695637 -90.76538086 102.39331055 C-93.26545866 99.8557547 -95.80066863 97.35769828 -98.34179688 94.86132812 C-99.9449575 93.25354164 -101.54594521 91.64358496 -103.14453125 90.03125 C-103.90172958 89.28822128 -104.65892792 88.54519257 -105.43907166 87.77964783 C-110.03746904 83.03522726 -111.88702405 80.09435705 -111.8359375 73.41015625 C-110.75023466 69.97209727 -109.94206538 69.48090817 -106.8359375 67.41015625 C-103.51724467 66.76970676 -102.00254708 66.53826881 -98.8359375 67.41015625 C-92.9771368 71.46554486 -88.27479747 76.85908147 -83.70703125 82.28125 C-79.97064506 86.53246185 -75.87267426 90.44651935 -71.8359375 94.41015625 C-67.77164628 90.7771184 -65.06020322 86.4436951 -62.12109375 81.90625 C-61.28122673 80.62337097 -61.28122673 80.62337097 -60.4243927 79.3145752 C-59.21221389 77.4625947 -58.00203659 75.60930295 -56.79364014 73.75485229 C-53.5628954 68.79896624 -50.31454731 63.85465152 -47.06640625 58.91015625 C-46.39518738 57.88792465 -45.72396851 56.86569305 -45.03240967 55.81248474 C-38.2957979 45.56521541 -31.48232102 35.37033274 -24.63131714 25.19924927 C-23.35370301 23.30210588 -22.07743131 21.40405772 -20.80252075 19.50509644 C-19.02292832 16.85515936 -17.23880775 14.20833565 -15.453125 11.5625 C-14.66286674 10.38427673 -14.66286674 10.38427673 -13.85664368 9.18225098 C-13.12492195 8.10191589 -13.12492195 8.10191589 -12.37841797 6.99975586 C-11.95736786 6.37524033 -11.53631775 5.75072479 -11.10250854 5.10728455 C-7.71478189 0.56793652 -5.61964704 -0.21050795 0 0 Z " fill="#121212" transform="translate(152.8359375,40.58984375)"/>
</svg>
